<svg xmlns="http://www.w3.org/2000/svg" viewBox="0 0 64 64">
  <!-- Purple page — top, tilted left -->
  <g transform="rotate(-10, 28, 24)">
    <path d="M8 2h26l8 8v30a3 3 0 01-3 3H8a3 3 0 01-3-3V5a3 3 0 013-3z" fill="#c4b8d9" opacity="0.85"/>
    <path d="M34 2v8h8z" fill="#b0a3cc"/>
    <path d="M34 2v8h8" fill="none" stroke="#6b5b95" stroke-width="1.2" stroke-linejoin="round"/>
  </g>
  <!-- Slate blue page — bottom-right, tilted right -->
  <g transform="rotate(12, 42, 36)">
    <path d="M24 20h22l7 7v25a2.5 2.5 0 01-2.5 2.5H24a2.5 2.5 0 01-2.5-2.5V22.5A2.5 2.5 0 0124 20z" fill="#a8bdd6" opacity="0.85"/>
    <path d="M46 20v7h7z" fill="#94add0"/>
    <path d="M46 20v7h7" fill="none" stroke="#4a6591" stroke-width="1.2" stroke-linejoin="round"/>
  </g>
  <!-- Gold page — bottom-left, slight tilt -->
  <g transform="rotate(5, 16, 42)">
    <path d="M4 34h19l6 6v16a2.5 2.5 0 01-2.5 2.5H4A2.5 2.5 0 011.5 56V36.5A2.5 2.5 0 014 34z" fill="#f5d690" opacity="0.88"/>
    <path d="M23 34v6h6z" fill="#e8c46a"/>
    <path d="M23 34v6h6" fill="none" stroke="#c49520" stroke-width="1.2" stroke-linejoin="round"/>
  </g>
</svg>
