<svg xmlns="http://www.w3.org/2000/svg" viewBox="0 0 64 64">
  <!-- Back page (purple) — rotated left -->
  <g transform="rotate(-12, 32, 34)">
    <path d="M14 10h24l8 8v30a3 3 0 01-3 3H14a3 3 0 01-3-3V13a3 3 0 013-3z" fill="#6b5b95" opacity="0.85"/>
    <path d="M38 10v8h8" fill="#5a4a82" stroke="none"/>
  </g>
  <!-- Middle page (slate blue) — rotated slightly right -->
  <g transform="rotate(6, 32, 34)">
    <path d="M14 10h24l8 8v30a3 3 0 01-3 3H14a3 3 0 01-3-3V13a3 3 0 013-3z" fill="#4a6591" opacity="0.9"/>
    <path d="M38 10v8h8" fill="#3a5580" stroke="none"/>
  </g>
  <!-- Front page (warm gold/parchment) — straight -->
  <g transform="rotate(-2, 32, 34)">
    <path d="M16 12h22l7 7v29a3 3 0 01-3 3H16a3 3 0 01-3-3V15a3 3 0 013-3z" fill="#ede8e1" stroke="#2d3a4a" stroke-width="1.5"/>
    <path d="M38 12v7h7" fill="#d8d2c8" stroke="#2d3a4a" stroke-width="1.5" stroke-linejoin="round"/>
  </g>
</svg>
