<svg xmlns="http://www.w3.org/2000/svg" viewBox="2 0 60 54">
  <!-- Purple page (largest) — top, tilted left -->
  <g transform="rotate(-10, 30, 20)">
    <path d="M16 4h18l6 6v24a3 3 0 01-3 3H16a3 3 0 01-3-3V7a3 3 0 013-3z" fill="#6b5b95" opacity="0.72"/>
    <path d="M34 4v6h6z" fill="#6b5b95" opacity="0.5"/>
  </g>
  <!-- Slate blue page (medium) — bottom-right, tilted right -->
  <g transform="rotate(12, 44, 38)">
    <path d="M33 24h12l4 4v16a2.5 2.5 0 01-2.5 2.5H33a2.5 2.5 0 01-2.5-2.5V26.5a2.5 2.5 0 012.5-2.5z" fill="#4a6591" opacity="0.76"/>
    <path d="M45 24v4h4z" fill="#4a6591" opacity="0.54"/>
  </g>
  <!-- Gold page (smallest) — bottom-left, slight tilt -->
  <g transform="rotate(4, 18, 44)">
    <path d="M13 36h8l3 3v8a2 2 0 01-2 2H13a2 2 0 01-2-2V38a2 2 0 012-2z" fill="#e89840" opacity="0.8"/>
    <path d="M21 36v3h3z" fill="#e89840" opacity="0.58"/>
  </g>
</svg>
