<svg xmlns="http://www.w3.org/2000/svg" viewBox="0 0 1200 630">
  <!-- Background -->
  <rect width="1200" height="630" fill="#ede8e1"/>

  <!-- Icon (centered, scaled up) -->
  <g transform="translate(430, 40) scale(4.5)">
    <!-- Purple page (largest) — top, tilted left -->
    <g transform="rotate(-10, 30, 20)">
      <path d="M16 4h18l6 6v24a3 3 0 01-3 3H16a3 3 0 01-3-3V7a3 3 0 013-3z" fill="#6b5b95" opacity="0.72"/>
      <path d="M34 4v6h6z" fill="#6b5b95" opacity="0.5"/>
    </g>
    <!-- Slate blue page (medium) — bottom-right, tilted right -->
    <g transform="rotate(12, 44, 38)">
      <path d="M33 24h12l4 4v16a2.5 2.5 0 01-2.5 2.5H33a2.5 2.5 0 01-2.5-2.5V26.5a2.5 2.5 0 012.5-2.5z" fill="#4a6591" opacity="0.76"/>
      <path d="M45 24v4h4z" fill="#4a6591" opacity="0.54"/>
    </g>
    <!-- Gold page (smallest) — bottom-left, slight tilt -->
    <g transform="rotate(4, 18, 44)">
      <path d="M13 36h8l3 3v8a2 2 0 01-2 2H13a2 2 0 01-2-2V38a2 2 0 012-2z" fill="#e89840" opacity="0.8"/>
      <path d="M21 36v3h3z" fill="#e89840" opacity="0.58"/>
    </g>
  </g>

  <!-- Title -->
  <text x="600" y="470" text-anchor="middle" font-family="Inter, -apple-system, BlinkMacSystemFont, 'Segoe UI', sans-serif" font-weight="700" font-size="96" fill="#2d3a4a">context-db</text>

  <!-- Subtitle -->
  <text x="600" y="540" text-anchor="middle" font-family="Inter, -apple-system, BlinkMacSystemFont, 'Segoe UI', sans-serif" font-weight="400" font-size="36" fill="#6b7b8d">structured knowledge for LLM agents</text>
</svg>
